<svg xmlns="http://www.w3.org/2000/svg" viewBox="0 0 104.92 104.92"><defs><style>.cls-1{fill:#5dba15;}.cls-2{fill:none;stroke:#efecea;stroke-miterlimit:10;}</style></defs><title>Ресурс 12</title><g id="Слой_2" data-name="Слой 2"><g id="OBJECTS"><circle class="cls-1" cx="52.46" cy="52.46" r="52.46"/><path class="cls-2" d="M37.22,82.59a3.57,3.57,0,0,0,3.41-1.52c1.18-1.64,2.14-3.45,3.22-5.17a22.42,22.42,0,0,1,1.82-2.77c1.25-1.49,2.86-1.22,3.24.67a19,19,0,0,1,.18,5.64c-.18,1.84-1,3.61-1.24,5.45-.51,3.5-.85,7-1.25,10.55-.06.62,0,1.29.9,1,.21-.09.3-.71.28-1.07a20.18,20.18,0,0,1,2.68-10.59,14.63,14.63,0,0,0,1.49-11c-.19-.77-.25-1.58-.39-2.5,2,1.43,3.8,2.75,5.63,4A3.56,3.56,0,0,1,59,79.45c-.29,1.7-.63,3.4-.89,5.11a6.75,6.75,0,0,0,.06,1.34l.45,0c.59-1.06,1.17-2.12,1.78-3.21l3.84,1.86c-.19-.65-.22-.86-.31-1.06-.91-2.16-1.76-4.35-2.77-6.47A22.07,22.07,0,0,0,59,73.64c-1-1.44-2.2-2.81-3.32-4.2l.25-.42c1.94,0,3.88,0,5.83,0,2.56-.07,3.3.52,4.1,3,.58,1.81,1.38,3.55,2.08,5.32.24.61.64,1.09,1.28.63.18-.13.1-.94-.11-1.28a10.16,10.16,0,0,1-1.67-6.2c0-.87.29-1.27,1.3-1.11,1.89.29,3.79.48,5.7.61a4,4,0,0,0,1.43-.51,4.4,4.4,0,0,0-1.18-.8c-5-1.22-9.92-2.44-14.89-3.59a7.65,7.65,0,0,1-6.15-6.42c-.42-2-.64-4.12-.86-6.19-1-9.27,2.26-16.55,10.23-21.53a36.43,36.43,0,0,1,4.43-2.06l.15.35-.38.34c-2.61,2.21-5.3,4.34-7.79,6.67a12.74,12.74,0,0,0-2.27,3.52c-.45.86,0,1.4,1,1.43A40.49,40.49,0,0,0,71.5,39.91a12.69,12.69,0,0,0,6.32-4c2.18-2.6,2.9-5.77,3.53-9s1.63-5.83,4.43-7.59c.12-.07.16-.27.29-.5a5.22,5.22,0,0,0-.95-.27c-1.06-.08-2.13-.17-3.19-.17a30.86,30.86,0,0,0-16.44,4.22c-6.59,4-10.58,10-12.95,17.19a10.29,10.29,0,0,1-1.17,2,14.15,14.15,0,0,0-.26-3.35A29.39,29.39,0,0,0,37.9,22.17,28.78,28.78,0,0,0,23,18.46c-1.26,0-2.51.11-4.1.19.53,1,.87,1.57,1.2,2.18,1.51,2.77,3,5.47,3.42,8.73.6,4.76,3.39,8,7.88,9.74,5.18,2,10.58,2.13,16,1.87a2.88,2.88,0,0,0,.87-.37c-2.93-4.65-6.39-8.61-11.45-11.33a3.33,3.33,0,0,1,.64-.09c.22.05.43.12.64.18a17.86,17.86,0,0,1,8.29,5.6c2.93,3.41,5,7.21,4.21,12-.73,4.33-1.18,8.73-2.2,13s-3.08,5.37-7.52,4.63a3,3,0,0,0-.52-.1c-2,0-4-.39-5.94,0a40.5,40.5,0,0,0-6.6,2.4c-.19.07-.24.48-.36.74.35.12.73.4,1,.32,2-.5,4-1.09,6-1.64,1-.26,1.9-.49,2.85-.73l.2.32C37,67.18,36.48,68.29,36,69.4l.23.28a16.73,16.73,0,0,1,11.62-3.2c-1.75,2.41-3.29,4.58-5.53,6s-4.59,2.42-6.89,3.61v.34h6.51Z"/><path class="cls-2" d="M37.22,82.59l4.66-6.19H35.37v-.34c2.3-1.19,4.69-2.25,6.89-3.61s3.78-3.56,5.53-6a16.73,16.73,0,0,0-11.62,3.2L36,69.4c.53-1.11,1.07-2.22,1.61-3.33l-.2-.32c-1,.24-1.9.47-2.85.73-2,.55-4,1.14-6,1.64-.29.08-.67-.2-1-.32.12-.26.17-.67.36-.74a40.5,40.5,0,0,1,6.6-2.4c1.9-.38,4,0,5.94,0a3,3,0,0,1,.52.1c4.44.74,6.48-.3,7.52-4.63s1.47-8.66,2.2-13c.81-4.78-1.28-8.58-4.21-12a17.86,17.86,0,0,0-8.29-5.6c-.21-.06-.42-.13-.64-.18a3.33,3.33,0,0,0-.64.09c5.06,2.72,8.52,6.68,11.45,11.33a2.88,2.88,0,0,1-.87.37c-5.45.26-10.85.16-16-1.87-4.49-1.76-7.28-5-7.88-9.74-.41-3.26-1.91-6-3.42-8.73-.33-.61-.67-1.21-1.2-2.18,1.59-.08,2.84-.2,4.1-.19a28.78,28.78,0,0,1,15,3.71,29.39,29.39,0,0,1,13.21,16.3,14.15,14.15,0,0,1,.26,3.35,10.29,10.29,0,0,0,1.17-2c2.37-7.2,6.36-13.18,12.95-17.19a30.86,30.86,0,0,1,16.44-4.22c1.06,0,2.13.09,3.19.17a5.22,5.22,0,0,1,.95.27c-.13.23-.17.43-.29.5C83,21.14,82,23.92,81.35,27s-1.35,6.35-3.53,9a12.69,12.69,0,0,1-6.32,4,40.49,40.49,0,0,1-13.33,1.28c-1.06,0-1.46-.57-1-1.43a12.74,12.74,0,0,1,2.27-3.52c2.49-2.33,5.18-4.46,7.79-6.67l.38-.34-.15-.35A36.43,36.43,0,0,0,63,30.94c-8,5-11.24,12.26-10.23,21.53.22,2.07.44,4.16.86,6.19a7.65,7.65,0,0,0,6.15,6.42c5,1.15,9.93,2.37,14.89,3.59a4.4,4.4,0,0,1,1.18.8,4,4,0,0,1-1.43.51c-1.91-.13-3.81-.32-5.7-.61-1-.16-1.26.24-1.3,1.11a10.16,10.16,0,0,0,1.67,6.2c.21.34.29,1.15.11,1.28-.64.46-1,0-1.28-.63-.7-1.77-1.5-3.51-2.08-5.32-.8-2.48-1.54-3.07-4.1-3-1.95,0-3.89,0-5.83,0l-.25.42C56.8,70.83,58,72.2,59,73.64a22.07,22.07,0,0,1,2.18,3.43c1,2.12,1.86,4.31,2.77,6.47.09.2.12.41.31,1.06l-3.84-1.86c-.61,1.09-1.19,2.15-1.78,3.21l-.45,0a6.75,6.75,0,0,1-.06-1.34c.26-1.71.6-3.41.89-5.11a3.56,3.56,0,0,0-1.83-4.18c-1.83-1.24-3.61-2.56-5.63-4,.14.92.2,1.73.39,2.5a14.63,14.63,0,0,1-1.49,11,20.18,20.18,0,0,0-2.68,10.59c0,.36-.07,1-.28,1.07-.87.34-1-.33-.9-1,.4-3.52.74-7,1.25-10.55.27-1.84,1.06-3.61,1.24-5.45a19,19,0,0,0-.18-5.64c-.38-1.89-2-2.16-3.24-.67a22.42,22.42,0,0,0-1.82,2.77c-1.08,1.72-2,3.53-3.22,5.17A3.57,3.57,0,0,1,37.22,82.59Z"/></g></g></svg>